<svg width="23" height="27" viewBox="0 0 23 27" fill="none" xmlns="http://www.w3.org/2000/svg">
<path d="M11.5005 4.76895C12.5472 3.75943 13.5312 2.72873 14.5919 1.77745C17.2088 -0.575152 21.4116 0.452016 22.6433 3.75413C23.3586 5.66904 22.9922 7.4304 21.5966 8.90939C20.4573 10.1183 19.271 11.2849 18.0585 12.418C17.5549 12.8631 17.1569 13.4173 16.8941 14.0394C16.6313 14.6615 16.5105 15.3355 16.5407 16.0113C16.5773 18.0992 16.5878 20.1976 16.443 22.2785C16.2877 24.5093 14.0581 26.5142 11.4917 26.5018C9.10685 26.486 6.8877 24.7105 6.54924 22.372C6.41142 21.4172 6.44282 20.4306 6.43235 19.4652C6.41665 17.7956 6.44805 16.126 6.40967 14.4582C6.38867 14.1148 6.24984 13.7896 6.01713 13.5387C4.55689 12.0527 3.06001 10.6054 1.58581 9.14588C-0.423988 7.1339 -0.535644 4.1177 1.32063 2.13572C2.23241 1.15107 3.48912 0.566802 4.82155 0.508083C6.15398 0.449363 7.45616 0.920861 8.44913 1.82157C9.39646 2.68284 10.2932 3.61118 11.2021 4.50774C11.2894 4.59422 11.3853 4.67011 11.5005 4.76895ZM17.003 10.8296C15.2967 10.3372 13.8627 9.6224 12.6711 8.55641C10.8864 6.968 9.19757 5.26665 7.43725 3.64118C7.04013 3.24126 6.57271 2.91984 6.059 2.69343C5.40643 2.44452 4.68841 2.43404 4.02901 2.66381C3.36961 2.89357 2.81027 3.34915 2.44765 3.9518C1.7027 5.15899 1.8981 6.62385 2.9815 7.70396C4.73484 9.45474 6.51261 11.1826 8.26246 12.9386C10.513 15.1942 12.5891 17.5856 14.0441 20.4624C14.168 20.7077 14.2953 20.9513 14.421 21.1966C14.5396 19.3276 14.557 17.4903 14.5361 15.6707C14.5155 14.8554 14.6667 14.0451 14.9795 13.2935C15.2924 12.5419 15.7597 11.8662 16.3505 11.3114C16.5565 11.1355 16.7746 10.9745 17.003 10.8296V10.8296ZM12.9101 6.18086C14.093 7.2045 15.2374 8.08695 16.6715 8.53699C18.0114 8.95351 19.1332 8.63406 20.0875 7.60866C21.1866 6.42795 21.2651 4.78483 20.2619 3.58647C19.2588 2.3881 17.4461 2.07572 16.2493 3.03758C15.0752 3.97474 14.0493 5.08663 12.9101 6.18086ZM8.4596 16.2408C8.4596 18.0498 8.38981 19.8606 8.48053 21.6643C8.52898 22.4006 8.84241 23.0934 9.36158 23.6118C9.88075 24.1302 10.5697 24.4381 11.2981 24.4775C12.8037 24.5446 13.2416 24.0133 12.7479 22.582C11.8895 20.1094 10.2723 18.1257 8.45611 16.2478L8.4596 16.2408Z" fill="#613EEA"/>
<path d="M17.003 10.8296C16.7746 10.9745 16.5565 11.1355 16.3505 11.3115C15.759 11.8669 15.2913 12.5434 14.9784 13.296C14.6656 14.0486 14.5148 14.8599 14.5361 15.676C14.557 17.5045 14.5361 19.3329 14.4209 21.2019C14.2953 20.9566 14.168 20.713 14.0441 20.4677C12.5891 17.591 10.513 15.1995 8.26769 12.944C6.52307 11.1879 4.74007 9.46009 2.98674 7.70931C1.90333 6.6292 1.70793 5.16434 2.45288 3.95715C2.81551 3.3545 3.37485 2.89892 4.03424 2.66916C4.69364 2.43939 5.41167 2.44987 6.06424 2.69878C6.57794 2.92519 7.04536 3.24661 7.44248 3.64653C9.19757 5.26317 10.8864 6.96629 12.6711 8.55646C13.8696 9.62246 15.2967 10.3372 17.003 10.8296Z" fill="#F77F00"/>
<path d="M17.003 10.8296C16.7746 10.9745 16.5565 11.1355 16.3505 11.3115C15.759 11.8669 15.2913 12.5434 14.9784 13.296C14.6656 14.0486 14.5148 14.8599 14.5361 15.676C14.557 17.5045 14.5361 19.3329 14.4209 21.2019C14.2953 20.9566 14.168 20.713 14.0441 20.4677C12.5891 17.591 10.513 15.1995 8.26769 12.944C6.52307 11.1879 4.74007 9.46009 2.98674 7.70931C1.90333 6.6292 1.70793 5.16434 2.45288 3.95715C2.81551 3.3545 3.37485 2.89892 4.03424 2.66916C4.69364 2.43939 5.41167 2.44987 6.06424 2.69878C6.57794 2.92519 7.04536 3.24661 7.44248 3.64653C9.19757 5.26317 10.8864 6.96629 12.6711 8.55646C13.8696 9.62246 15.2967 10.3372 17.003 10.8296Z" fill="#D0FA76"/>
<path d="M17.003 10.8296C16.7746 10.9745 16.5565 11.1355 16.3505 11.3115C15.759 11.8669 15.2913 12.5434 14.9784 13.296C14.6656 14.0486 14.5148 14.8599 14.5361 15.676C14.557 17.5045 14.5361 19.3329 14.4209 21.2019C14.2953 20.9566 14.168 20.713 14.0441 20.4677C12.5891 17.591 10.513 15.1995 8.26769 12.944C6.52307 11.1879 4.74007 9.46009 2.98674 7.70931C1.90333 6.6292 1.70793 5.16434 2.45288 3.95715C2.81551 3.3545 3.37485 2.89892 4.03424 2.66916C4.69364 2.43939 5.41167 2.44987 6.06424 2.69878C6.57794 2.92519 7.04536 3.24661 7.44248 3.64653C9.19757 5.26317 10.8864 6.96629 12.6711 8.55646C13.8696 9.62246 15.2967 10.3372 17.003 10.8296Z" fill="#D0FA76"/>
<path d="M12.9102 6.1808C14.0494 5.08656 15.0752 3.97468 16.2441 3.03752C17.4427 2.07566 19.2588 2.4004 20.2567 3.58641C21.2547 4.77241 21.1849 6.42788 20.0823 7.6086C19.128 8.634 18.0062 8.95345 16.6663 8.53693C15.2375 8.08688 14.093 7.20444 12.9102 6.1808Z" fill="#D0FA76"/>
<path d="M8.45605 16.2478C10.2722 18.1256 11.8895 20.1094 12.7443 22.5891C13.238 24.0204 12.8001 24.5516 11.2945 24.4846C10.567 24.4453 9.87873 24.1381 9.35968 23.6208C8.84064 23.1035 8.52666 22.412 8.47699 21.6766C8.38627 19.8676 8.45605 18.0568 8.45605 16.2478Z" fill="#D0FA76"/>
</svg>
