<svg width="39" height="39" viewBox="0 0 39 39" fill="none" xmlns="http://www.w3.org/2000/svg">
<circle cx="19.5" cy="19.5" r="19.5" fill="#344054"/>
<path d="M20 11.7107C22.4047 11.7107 22.6895 11.7219 23.6352 11.7664C24.5141 11.8072 24.9887 11.9631 25.3051 12.093C25.7234 12.2637 26.0258 12.4715 26.3387 12.8018C26.6551 13.1357 26.8484 13.4512 27.0102 13.8928C27.1332 14.2268 27.2809 14.7314 27.3195 15.6555C27.3617 16.6574 27.3723 16.958 27.3723 19.4926C27.3723 22.0309 27.3617 22.3314 27.3195 23.3297C27.2809 24.2574 27.1332 24.7584 27.0102 25.0924C26.8484 25.534 26.6516 25.8531 26.3387 26.1834C26.0223 26.5174 25.7234 26.7215 25.3051 26.8922C24.9887 27.0221 24.5105 27.1779 23.6352 27.2188C22.6859 27.2633 22.4012 27.2744 20 27.2744C17.5953 27.2744 17.3105 27.2633 16.3648 27.2188C15.4859 27.1779 15.0113 27.0221 14.6949 26.8922C14.2766 26.7215 13.9742 26.5137 13.6613 26.1834C13.3449 25.8494 13.1516 25.534 12.9898 25.0924C12.8668 24.7584 12.7191 24.2537 12.6805 23.3297C12.6383 22.3277 12.6277 22.0271 12.6277 19.4926C12.6277 16.9543 12.6383 16.6537 12.6805 15.6555C12.7191 14.7277 12.8668 14.2268 12.9898 13.8928C13.1516 13.4512 13.3484 13.132 13.6613 12.8018C13.9777 12.4678 14.2766 12.2637 14.6949 12.093C15.0113 11.9631 15.4895 11.8072 16.3648 11.7664C17.3105 11.7219 17.5953 11.7107 20 11.7107ZM20 10C17.5566 10 17.2508 10.0111 16.291 10.0557C15.3348 10.1002 14.6773 10.2635 14.1078 10.4973C13.5137 10.7422 13.0109 11.065 12.5117 11.5957C12.009 12.1227 11.7031 12.6533 11.4711 13.2768C11.2496 13.8816 11.0949 14.5719 11.0527 15.5812C11.0105 16.598 11 16.9209 11 19.5C11 22.0791 11.0105 22.402 11.0527 23.415C11.0949 24.4244 11.2496 25.1184 11.4711 25.7195C11.7031 26.3467 12.009 26.8773 12.5117 27.4043C13.0109 27.9312 13.5137 28.2578 14.1043 28.499C14.6773 28.7328 15.3313 28.8961 16.2875 28.9406C17.2473 28.9852 17.5531 28.9963 19.9965 28.9963C22.4398 28.9963 22.7457 28.9852 23.7055 28.9406C24.6617 28.8961 25.3191 28.7328 25.8887 28.499C26.4793 28.2578 26.982 27.9312 27.4813 27.4043C27.9805 26.8773 28.2898 26.3467 28.5184 25.7232C28.7398 25.1184 28.8945 24.4281 28.9367 23.4188C28.9789 22.4057 28.9895 22.0828 28.9895 19.5037C28.9895 16.9246 28.9789 16.6018 28.9367 15.5887C28.8945 14.5793 28.7398 13.8854 28.5184 13.2842C28.2969 12.6533 27.991 12.1227 27.4883 11.5957C26.9891 11.0688 26.4863 10.7422 25.8957 10.501C25.3227 10.2672 24.6688 10.1039 23.7125 10.0594C22.7492 10.0111 22.4434 10 20 10Z" fill="#98A2B3"/>
<path d="M20 14.6201C17.4477 14.6201 15.377 16.8059 15.377 19.5C15.377 22.1941 17.4477 24.3799 20 24.3799C22.5523 24.3799 24.623 22.1941 24.623 19.5C24.623 16.8059 22.5523 14.6201 20 14.6201ZM20 22.6654C18.3441 22.6654 17.0012 21.2479 17.0012 19.5C17.0012 17.7521 18.3441 16.3346 20 16.3346C21.6559 16.3346 22.9988 17.7521 22.9988 19.5C22.9988 21.2479 21.6559 22.6654 20 22.6654Z" fill="#98A2B3"/>
<path d="M25.8852 14.4271C25.8852 15.058 25.4 15.5664 24.8059 15.5664C24.2082 15.5664 23.7266 15.0543 23.7266 14.4271C23.7266 13.7962 24.2117 13.2878 24.8059 13.2878C25.4 13.2878 25.8852 13.8 25.8852 14.4271Z" fill="#98A2B3"/>
</svg>
