<svg width="39" height="39" viewBox="0 0 39 39" fill="none" xmlns="http://www.w3.org/2000/svg">
<circle cx="19.5" cy="19.5" r="19.5" fill="#344054"/>
<path d="M27.5936 10H11.4027C10.6271 10 10 10.6123 10 11.3693V27.627C10 28.384 10.6271 29 11.4027 29H27.5936C28.3691 29 29 28.384 29 27.6307V11.3693C29 10.6123 28.3691 10 27.5936 10ZM15.6369 26.1908H12.8166V17.1213H15.6369V26.1908ZM14.2268 15.8855C13.3213 15.8855 12.5902 15.1545 12.5902 14.2527C12.5902 13.351 13.3213 12.6199 14.2268 12.6199C15.1285 12.6199 15.8596 13.351 15.8596 14.2527C15.8596 15.1508 15.1285 15.8855 14.2268 15.8855ZM26.1908 26.1908H23.3742V21.7822C23.3742 20.732 23.3557 19.3775 21.9084 19.3775C20.4426 19.3775 20.2199 20.5242 20.2199 21.708V26.1908H17.407V17.1213H20.1086V18.3607H20.1457C20.5205 17.6482 21.4408 16.8949 22.8102 16.8949C25.6639 16.8949 26.1908 18.7727 26.1908 21.2145V26.1908Z" fill="#98A2B3"/>
</svg>
