<svg width="86" height="37" viewBox="0 0 86 37" fill="none" xmlns="http://www.w3.org/2000/svg">
<path d="M12.0005 9.77016C13.0472 8.76079 14.0312 7.73024 15.0919 6.7791C17.7088 4.42683 21.9116 5.45385 23.1433 8.7555C23.8586 10.6701 23.4922 12.4312 22.0966 13.91C20.9573 15.1188 19.771 16.2852 18.5585 17.4181C18.0549 17.8632 17.6569 18.4173 17.3941 19.0393C17.1313 19.6613 17.0105 20.3352 17.0407 21.0109C17.0773 23.0985 17.0878 25.1967 16.943 27.2772C16.7877 29.5077 14.5581 31.5123 11.9917 31.4999C9.60685 31.4841 7.3877 29.7088 7.04924 27.3707C6.91142 26.416 6.94282 25.4296 6.93235 24.4643C6.91665 22.795 6.94805 21.1256 6.90967 19.458C6.88867 19.1147 6.74984 18.7895 6.51713 18.5387C5.05689 17.0528 3.56001 15.6058 2.08581 14.1465C0.0760117 12.1348 -0.0356438 9.11901 1.82063 7.13732C2.73241 6.15281 3.98912 5.56862 5.32155 5.50991C6.65398 5.4512 7.95616 5.92263 8.94913 6.82321C9.89646 7.68436 10.7932 8.61256 11.7021 9.509C11.7894 9.59546 11.8853 9.67134 12.0005 9.77016ZM17.503 15.8299C15.7967 15.3376 14.3627 14.6229 13.1711 13.5571C11.3864 11.9689 9.69757 10.2678 7.93725 8.64256C7.54013 8.2427 7.07271 7.92133 6.559 7.69495C5.90643 7.44607 5.18841 7.4356 4.52901 7.66533C3.86961 7.89506 3.31027 8.35057 2.94765 8.95314C2.2027 10.1601 2.3981 11.6248 3.4815 12.7048C5.23484 14.4553 7.01261 16.1829 8.76245 17.9387C11.013 20.1939 13.0891 22.585 14.5441 25.4613C14.668 25.7066 14.7953 25.9502 14.9209 26.1954C15.0396 24.3267 15.057 22.4897 15.0361 20.6703C15.0155 19.8552 15.1667 19.045 15.4795 18.2935C15.7924 17.542 16.2597 16.8664 16.8505 16.3117C17.0565 16.1358 17.2746 15.9748 17.503 15.8299ZM13.4101 11.1819C14.593 12.2054 15.7374 13.0877 17.1715 13.5377C18.5114 13.9541 19.6332 13.6347 20.5875 12.6095C21.6866 11.4289 21.7651 9.78605 20.7619 8.58785C19.7588 7.38966 17.9461 7.07732 16.7493 8.03905C15.5752 8.97608 14.5493 10.0878 13.4101 11.1819ZM8.9596 21.2403C8.9596 23.0491 8.88981 24.8596 8.98053 26.6631C9.02898 27.3993 9.34241 28.092 9.86158 28.6103C10.3807 29.1286 11.0697 29.4365 11.7981 29.4759C13.3037 29.543 13.7416 29.0118 13.2479 27.5807C12.3895 25.1084 10.7723 23.125 8.95611 21.2474L8.9596 21.2403Z" fill="#D0FA76"/>
<path d="M40.092 27V20.16L45.684 9.96H42.276L38.652 17.088L34.86 9.96H31.26L36.972 20.16V27H40.092ZM44.97 20.928C44.97 24.72 47.538 27.36 51.114 27.36C54.69 27.36 57.258 24.72 57.258 20.928C57.258 17.184 54.69 14.52 51.114 14.52C47.538 14.52 44.97 17.184 44.97 20.928ZM48.042 20.928C48.042 18.672 49.29 17.088 51.114 17.088C52.938 17.088 54.186 18.672 54.186 20.928C54.186 23.208 52.938 24.792 51.114 24.792C49.29 24.792 48.042 23.208 48.042 20.928ZM66.0724 27.36C69.4564 27.36 71.8324 24.696 71.8324 20.952C71.8324 17.16 69.4564 14.52 66.1444 14.52C64.6084 14.52 63.4084 15.072 62.5684 15.984V9.96H59.5444V27H62.3764V25.704C63.2404 26.76 64.4644 27.36 66.0724 27.36ZM62.3524 20.952C62.3524 18.648 63.6964 17.112 65.5684 17.112C67.3924 17.112 68.7604 18.672 68.7604 20.952C68.7604 23.208 67.3924 24.72 65.5684 24.72C63.6964 24.72 62.3524 23.136 62.3524 20.952ZM77.9865 24.96C77.0985 24.96 76.3545 24.552 76.3545 23.64C76.3545 22.896 77.0265 21.576 80.9385 21.456V22.08C80.9385 23.88 79.2825 24.96 77.9865 24.96ZM81.0825 27H83.9145V19.536C83.9145 15.888 81.9225 14.52 78.8745 14.52C76.6185 14.52 74.7945 15.552 73.7145 16.944L75.7305 18.624C76.7385 17.496 77.7945 17.112 78.7545 17.112C79.9785 17.112 80.9385 17.76 80.9385 18.984V19.224C76.6905 19.344 73.2825 20.784 73.2825 23.88C73.2825 26.208 75.2025 27.36 77.1465 27.36C78.7785 27.36 80.2665 26.568 81.0825 25.704V27Z" fill="white"/>
</svg>
