<svg width="39" height="39" viewBox="0 0 39 39" fill="none" xmlns="http://www.w3.org/2000/svg">
<circle cx="19.5" cy="19.5" r="19.5" fill="#344054"/>
<g clip-path="url(#clip0_0_3667)">
<path d="M15.9772 27.2188C23.1453 27.2188 27.067 21.2787 27.067 16.1291C27.067 15.9621 27.0633 15.7914 27.0558 15.6244C27.8187 15.0727 28.4771 14.3893 29 13.6064C28.2895 13.9225 27.5351 14.1289 26.7627 14.2187C27.576 13.7311 28.185 12.9653 28.4768 12.063C27.7116 12.5164 26.8748 12.8363 26.0023 13.0089C25.4144 12.3842 24.6371 11.9706 23.7906 11.832C22.9441 11.6935 22.0754 11.8376 21.319 12.2422C20.5626 12.6467 19.9606 13.2892 19.606 14.0703C19.2513 14.8514 19.1639 15.7275 19.3571 16.5632C17.8078 16.4855 16.2921 16.083 14.9083 15.3819C13.5245 14.6808 12.3035 13.6967 11.3244 12.4935C10.8268 13.3514 10.6745 14.3666 10.8986 15.3328C11.1226 16.299 11.7061 17.1437 12.5305 17.6951C11.9116 17.6754 11.3062 17.5088 10.7645 17.2089V17.2572C10.7639 18.1575 11.0752 19.0303 11.6453 19.7271C12.2155 20.4239 13.0094 20.9018 13.892 21.0795C13.3187 21.2363 12.717 21.2592 12.1334 21.1463C12.3825 21.9206 12.8671 22.5978 13.5196 23.0834C14.1721 23.5691 14.9599 23.8389 15.7731 23.8552C14.3925 24.9397 12.6871 25.5279 10.9314 25.5252C10.6201 25.5247 10.3091 25.5056 10 25.468C11.7835 26.6122 13.8582 27.2199 15.9772 27.2188Z" fill="#98A2B3"/>
</g>
<defs>
<clipPath id="clip0_0_3667">
<rect width="19" height="19" fill="white" transform="translate(10 10)"/>
</clipPath>
</defs>
</svg>
